<!DOCTYPE svg PUBLIC "-//W3C//DTD SVG 1.1//EN" "http://www.w3.org/Graphics/SVG/1.1/DTD/svg11.dtd" [
	<!ENTITY ns_flows "http://ns.adobe.com/Flows/1.0/">
]><svg xmlns="http://www.w3.org/2000/svg" width="457" height="100" viewBox="0 0 457 100" overflow="visible"><path fill="#12100C" d="M187.743 8.396h-72.193v13.47h28.777v68.818h14.637v-68.818h28.779zM242.91 61.532c0 5.675.848 11.606 2.162 14.651 1.316 3.061 3.256 5.77 5.76 8.051 2.469 2.262 5.504 4.074 9.016 5.398 3.498 1.306 9.082 1.971 13.479 1.971s9.9-.665 13.404-1.975c3.506-1.317 6.537-3.131 9.016-5.395 2.51-2.297 4.443-5.004 5.756-8.053 1.312-3.053 2.213-8.975 2.213-14.649v-26.34h-13.822l-.002 26.341c0 3.618-.375 7.694-1.078 9.593-.715 1.936-1.758 3.642-3.133 5.124-1.375 1.497-3.117 2.698-5.172 3.587-4.139 1.812-10.199 1.795-14.336 0-2.059-.889-3.801-2.09-5.191-3.587-1.357-1.482-2.375-3.218-3.113-5.124-.738-1.898-1.074-5.975-1.074-9.593v-26.341h-13.932l.047 26.341zM368.949 43.884c4.432-3.784 5.521-9.194 5.342-14.549-.131-3.937-.697-20.688-26.414-20.688h-16.123v-.033h-14.637v82.7l35.934.016c5.77-.109 11.438-.906 14.533-1.809 15.461-4.506 16.068-20.504 16.006-24.605-.073-4.602-2.042-17.224-14.641-21.032m-21.073-23.835c10.287.08 12.416 5.074 12.488 9.682.086 5.412-2.471 11.111-12.043 11.111h-16.568v-20.795l16.123.002zm5.055 58.917h-21.178v-26.904l21.178.001c10.02 0 15.854 5.255 15.854 12.889 0 8.566-4.344 13.763-15.854 14.014M197.639 42.895v-7.669h-13.855v55.809h13.855v-26.158c-.01-10.367 6.477-22.533 18.24-20.203 5.427 1.075 7.955 6.598 8.776 8.85l9.999-6.512c-.842-1.484-1.531-2.891-2.357-4.186-7.482-11.734-25.84-11.398-34.658.069"/><path fill="#12100C" d="M445.738 66.535h10.914c.193-1.344.297-2.709.297-4.092 0-3.874-.76-7.608-2.264-11.105-1.51-3.5-3.725-6.596-6.578-9.199-2.838-2.596-6.307-4.672-10.303-6.17-3.982-1.495-8.564-2.254-13.613-2.254-4.99 0-9.539.759-13.518 2.254-4.004 1.501-7.469 3.578-10.303 6.166-2.852 2.604-5.084 5.693-6.625 9.188-1.533 3.497-2.311 7.239-2.311 11.12 0 3.878.758 7.611 2.258 11.095 1.508 3.497 3.723 6.595 6.586 9.203 2.824 2.585 6.293 4.657 10.311 6.173 3.998 1.492 8.572 2.253 13.602 2.253 5.027 0 9.605-.761 13.613-2.258 4.006-1.507 7.471-3.579 10.303-6.168 1.102-1.007 2.098-2.089 3-3.229l-9.504-7.38c-.557.808-1.916 2.392-2.85 3.226-1.736 1.545-4.002 2.863-6.355 3.879-4.732 2.07-11.658 2.051-16.389 0-2.354-1.016-4.344-2.391-5.932-4.103-1.555-1.694-2.748-3.664-3.562-5.856-.34-.895-.6-1.811-.797-2.742h40.02zm-39.768-9.306c.156-.576.338-1.141.545-1.691l.133-.319c.805-2.032 1.939-3.863 3.447-5.478 1.588-1.732 3.576-3.125 5.898-4.122 2.375-1.038 5.15-1.552 8.209-1.552 3.078 0 5.834.514 8.211 1.552 2.338 1.017 4.328 2.39 5.918 4.103 1.553 1.694 2.746 3.644 3.561 5.816.207.554.389 1.117.545 1.691h-36.467z"/><path fill="#E7503B" d="M60.139 16.712c.056 9.286-7.426 16.859-16.71 16.917-9.291.058-16.863-7.427-16.918-16.713-.057-9.288 7.425-16.861 16.714-16.916 9.284-.058 16.857 7.424 16.914 16.712M85.425 83.932s-56.425-33.925-80.486 3.474c0-.001 33.959 30.528 80.486-3.474M52.059 38.513s-7.038 23.908-22.23 23.908c-13.406 0-26.251-28.821-29.829-29.046 0 0 7.824-9.496 17.988-2.906 18.838 12.213 26.583 11.174 34.071 8.044M46.379 61.691c26.316.394 59.763-31.637 24.082-44.427-3.63 24.829-21.275 40.417-24.082 44.427"/></svg>