<svg xmlns="http://www.w3.org/2000/svg" width="32" height="32" viewBox="-5 -4.5 32 32" enable-background="new -5 -4.5 32 32"><path d="M12.414 11.5l9.293 9.293c.391.39.391 1.022 0 1.413-.195.195-.451.294-.707.294s-.512-.099-.707-.294l-9.293-9.293-9.293 9.293c-.194.195-.451.294-.707.294s-.512-.099-.707-.294c-.391-.391-.391-1.023 0-1.413l9.293-9.293-9.293-9.293c-.391-.391-.391-1.024 0-1.414.392-.391 1.023-.391 1.414 0l9.293 9.293 9.293-9.293c.391-.391 1.023-.391 1.414 0 .391.39.391 1.023 0 1.414l-9.293 9.293z"/></svg>