<?xml version="1.0" encoding="utf-8"?>
<!-- Generator: Adobe Illustrator 17.1.0, SVG Export Plug-In . SVG Version: 6.00 Build 0)  -->
<!DOCTYPE svg PUBLIC "-//W3C//DTD SVG 1.1//EN" "http://www.w3.org/Graphics/SVG/1.1/DTD/svg11.dtd">
<svg version="1.1" id="Layer_1" xmlns="http://www.w3.org/2000/svg" xmlns:xlink="http://www.w3.org/1999/xlink" x="0px" y="0px"
	 viewBox="0 329.4 595.3 183.1" enable-background="new 0 329.4 595.3 183.1" xml:space="preserve">
<path fill="#9F1F63" d="M91.2,329.4C40.8,329.4,0,370.3,0,420.6s40.8,91.2,91.2,91.2s91.2-40.8,91.2-91.2S141.6,329.4,91.2,329.4z
	 M154.1,409.5c-0.5,0.4-1.1,0.1-1.6-0.1c-17.1-6-35.2-8.7-53.3-8.5c-3,0.1-5.8,0.6-8.7,1.2c-0.8,0.1-1.7,0.5-1.9,1.4
	c-0.2,0.8,0.4,1.6,0.9,2.1c1.4,1.3,2.8,2.5,4.5,3.4c6.7,3.5,13.3,6.9,20.2,10.1c2.8,1.3,5.7,2.3,8.5,3.5c0.1,0.1,0.2,0.4,0.3,0.5
	c-1.3,0.1-2.5,0.2-3.8,0.2c-5.8-0.2-11.5-0.9-17.2-2.3c-9.7-2.5-19-6.2-27.1-12c-2.8-1.9-5.3-4.3-7.2-7.2c-0.9-1.3-1.4-3-0.9-4.6
	c0.5-1.6,2-2.6,3.5-3.2c3.2-1.2,6.7-1.7,10.1-1.9c6.6-0.4,13.1,0.4,19.6,1.2c14.4,1.9,28.7,5.6,42.2,10.9
	C146,406,150.1,407.7,154.1,409.5z M64.9,379.1c0.4-2.4,1.9-4.3,3.5-6c3.8-3.8,9.1-5.8,14.3-6h2.8c3.4,0.2,6.6,0.9,10,1.7
	c9.2,2.1,18.1,5.3,26.9,8.8c0.4,0.1,0.8,0.5,1.2,0.8c-1.3,0-2.6-0.4-3.9-0.6c-7.5-1.4-15.1-1.6-22.6-0.7c-3.5,0.4-7.1,1.2-10.2,3.2
	c-1.8,1.1-3.2,2.8-4.9,4c-1.9,1.4-3.8,2.8-6.1,3.3c-3,0.7-6.6,0.1-8.9-2.1C65.3,383.8,64.5,381.4,64.9,379.1z M157.8,457.3
	c-5.6-2.2-11.3-4.5-17-6.5c-6.3-2.2-12.8-4.2-19.3-6.1c-6.7-1.9-13.4-4-20.3-5.3c-4.5-0.8-8.9-1.4-13.3-1.5
	c-10.2-0.3-20,2.6-29.6,5.8c-15.2,5.2-29.7,12.3-43.6,20.2c-0.7-0.8,0.5-1.3,0.9-1.8c6.9-6.9,14.2-13.3,22.2-19
	c8.6-6.1,17.7-11.2,27.5-15c6-2.4,12.3-4,18.8-4.2c3.6-0.1,7.2,0.1,10.7,0.7c9,1.4,17.7,4.2,25.9,8.4c9.4,5.1,18.6,10.4,27.6,16
	c5.6,3.5,11,7,16.5,10.5c1.2,0.7,2.3,1.4,3.3,2.2c-0.5-0.1-1-0.1-1.5-0.3C163.6,460,160.7,458.5,157.8,457.3z"/>
</svg>
