<?xml version="1.0" standalone="no"?>
<!DOCTYPE svg PUBLIC "-//W3C//DTD SVG 1.1//EN" "http://www.w3.org/Graphics/SVG/1.1/DTD/svg11.dtd">
<svg width="100%" height="100%" viewBox="0 0 29 41" version="1.1" xmlns="http://www.w3.org/2000/svg" xmlns:xlink="http://www.w3.org/1999/xlink" xml:space="preserve" style="fill-rule:evenodd;clip-rule:evenodd;stroke-linejoin:round;stroke-miterlimit:1.41421;">
    <g transform="matrix(1,0,0,1,-474.308,-841.29)">
        <path id="Shape 154" d="M500.332,853.475C499.025,853.475 497.966,852.411 497.966,851.098C497.966,847.934 496.087,846.045 492.939,846.045C489.791,846.045 488.459,847.934 488.459,851.098L488.459,859.122L494.417,859.122C495.725,859.122 496.783,860.187 496.783,861.5C496.783,862.814 495.725,863.877 494.417,863.877L488.459,863.877L488.459,867.444C488.459,870.866 487.012,874.308 485.251,876.954L500.332,876.954C501.639,876.954 502.698,878.02 502.698,879.332C502.698,880.646 501.639,881.71 500.332,881.71L476.674,881.71C475.367,881.71 474.308,880.646 474.308,879.332C474.308,878.02 475.367,876.954 476.674,876.954C481.144,876.954 483.727,872.026 483.727,867.444L483.727,863.877L476.674,863.877C475.367,863.877 474.308,862.814 474.308,861.5C474.308,860.187 475.367,859.122 476.674,859.122L483.727,859.122L483.727,851.098C483.727,845.323 487.193,841.29 492.939,841.29C498.684,841.29 502.698,845.323 502.698,851.098C502.698,852.411 501.639,853.475 500.332,853.475Z" style="fill:black;fill-rule:nonzero;"/>
    </g>
</svg>
