<?xml version="1.0" standalone="no"?>
<!DOCTYPE svg PUBLIC "-//W3C//DTD SVG 1.1//EN" "http://www.w3.org/Graphics/SVG/1.1/DTD/svg11.dtd">
<svg width="100%" height="100%" viewBox="0 0 51 43" version="1.1" xmlns="http://www.w3.org/2000/svg" xmlns:xlink="http://www.w3.org/1999/xlink" xml:space="preserve" style="fill-rule:evenodd;clip-rule:evenodd;stroke-linejoin:round;stroke-miterlimit:1.41421;">
    <g transform="matrix(1,0,0,1,-917,-843.007)">
        <path id="Shape 182" d="M931.065,852.875C931.565,852.874 931.951,852.487 932,851.994C932.51,846.956 936.795,843.007 942,843.007C947.205,843.007 951.49,846.956 952,851.994C952.049,852.487 952.435,852.874 952.935,852.875L957.384,852.875C962.696,852.876 967,857.151 967,862.424L967,876.425C967,881.698 962.696,885.973 957.384,885.974L926.616,885.974C921.305,885.974 917,881.699 917,876.425L917,862.424C917,857.151 921.304,852.876 926.616,852.875L931.065,852.875ZM952.714,864.696L950.333,864.696L950.333,857.603L933.667,857.603L933.667,864.696L931.286,864.696L931.286,857.603L926.616,857.603C923.934,857.604 921.762,859.762 921.762,862.424L921.762,876.425C921.762,879.087 923.935,881.245 926.616,881.245L957.384,881.245C960.066,881.244 962.238,879.087 962.238,876.425L962.238,862.424C962.238,859.762 960.066,857.604 957.384,857.603L952.714,857.603L952.714,864.696ZM948.628,852.875C949.235,852.874 949.663,852.321 949.563,851.728C948.952,848.126 945.798,845.372 942,845.372C938.202,845.372 935.048,848.126 934.437,851.728C934.337,852.321 934.766,852.875 935.372,852.875L948.628,852.875Z" style="fill:black;"/>
    </g>
</svg>
