<?xml version="1.0" encoding="iso-8859-1"?>
<!-- Generator: Adobe Illustrator 16.0.0, SVG Export Plug-In . SVG Version: 6.00 Build 0)  -->
<!DOCTYPE svg PUBLIC "-//W3C//DTD SVG 1.1//EN" "http://www.w3.org/Graphics/SVG/1.1/DTD/svg11.dtd" [
	<!ENTITY ns_extend "http://ns.adobe.com/Extensibility/1.0/">
	<!ENTITY ns_ai "http://ns.adobe.com/AdobeIllustrator/10.0/">
	<!ENTITY ns_graphs "http://ns.adobe.com/Graphs/1.0/">
	<!ENTITY ns_vars "http://ns.adobe.com/Variables/1.0/">
	<!ENTITY ns_imrep "http://ns.adobe.com/ImageReplacement/1.0/">
	<!ENTITY ns_sfw "http://ns.adobe.com/SaveForWeb/1.0/">
	<!ENTITY ns_custom "http://ns.adobe.com/GenericCustomNamespace/1.0/">
	<!ENTITY ns_adobe_xpath "http://ns.adobe.com/XPath/1.0/">
]>
<svg version="1.1" id="Layer_1" xmlns:x="&ns_extend;" xmlns:i="&ns_ai;" xmlns:graph="&ns_graphs;"
	 xmlns="http://www.w3.org/2000/svg" xmlns:xlink="http://www.w3.org/1999/xlink" x="0px" y="0px" width="825.144px"
	 height="253.659px" viewBox="0 0 825.144 253.659" style="enable-background:new 0 0 825.144 253.659;" xml:space="preserve">
<metadata>
	<sfw  xmlns="&ns_sfw;">
		<slices></slices>
		<sliceSourceBounds  height="253.659" width="825.145" y="0" x="-0.002" bottomLeftOrigin="true"></sliceSourceBounds>
		<optimizationSettings></optimizationSettings>
	</sfw>
</metadata>
<g>
	<defs>
		<rect id="SVGID_1_" x="-0.002" width="825.144" height="253.659"/>
	</defs>
	<clipPath id="SVGID_2_">
		<use xlink:href="#SVGID_1_"  style="overflow:visible;"/>
	</clipPath>
	<path style="clip-path:url(#SVGID_2_);fill:#E94F33;" d="M253.657,126.83c0,70.046-56.783,126.829-126.829,126.829
		S-0.002,196.876-0.002,126.83c0-70.046,56.784-126.829,126.83-126.829S253.657,56.784,253.657,126.83"/>
	<path style="clip-path:url(#SVGID_2_);fill:#FFFFFF;" d="M152.841,76.326c0.085,14.088-11.267,25.58-25.353,25.667
		c-14.096,0.087-25.585-11.269-25.67-25.357c-0.085-14.093,11.267-25.584,25.36-25.667
		C141.265,50.881,152.753,62.233,152.841,76.326"/>
	<path style="clip-path:url(#SVGID_2_);fill:#FFFFFF;" d="M191.205,178.312c0,0-85.609-51.471-122.115,5.27
		C69.09,183.582,120.614,229.902,191.205,178.312"/>
	<path style="clip-path:url(#SVGID_2_);fill:#FFFFFF;" d="M140.581,109.402c0,0-10.678,36.272-33.728,36.272
		c-20.339,0-39.828-43.728-45.256-44.067c0,0,11.87-14.408,27.292-4.409C117.471,115.727,129.221,114.15,140.581,109.402"/>
	<path style="clip-path:url(#SVGID_2_);fill:#FFFFFF;" d="M131.963,144.569c39.928,0.598,90.674-48.001,36.537-67.407
		C162.994,114.833,136.223,138.484,131.963,144.569"/>
	<polygon style="clip-path:url(#SVGID_2_);fill:#FFFFFF;" points="422.195,64.558 379.118,64.558 357.21,64.558 314.136,64.558 
		314.136,84.719 357.21,84.719 357.21,187.726 379.118,187.726 379.118,84.719 422.195,84.719 	"/>
	<path style="clip-path:url(#SVGID_2_);fill:#FFFFFF;" d="M504.768,144.092c0,8.493,1.269,17.373,3.236,21.93
		c1.971,4.581,4.874,8.636,8.621,12.051c3.695,3.385,8.238,6.098,13.497,8.08c5.233,1.954,13.592,2.95,20.173,2.95
		c6.583,0,14.821-0.996,20.065-2.956c5.246-1.972,9.783-4.687,13.493-8.074c3.756-3.438,6.651-7.49,8.615-12.054
		c1.965-4.569,3.312-13.434,3.312-21.927v-39.427h-20.688l-0.003,39.427c0,5.416-0.562,11.517-1.614,14.358
		c-1.069,2.897-2.631,5.45-4.69,7.669c-2.055,2.241-4.662,4.039-7.74,5.369c-6.194,2.713-15.264,2.688-21.458,0
		c-3.081-1.33-5.689-3.128-7.768-5.369c-2.035-2.219-3.555-4.815-4.663-7.669c-1.104-2.842-1.607-8.942-1.607-14.358v-39.427
		h-20.854L504.768,144.092z"/>
	<path style="clip-path:url(#SVGID_2_);fill:#FFFFFF;" d="M693.424,117.675c6.634-5.664,8.265-13.762,7.996-21.777
		c-0.196-5.892-1.044-30.965-39.537-30.965H637.75v-0.049h-21.905v123.785l53.782,0.024c8.636-0.164,17.12-1.357,21.754-2.707
		c23.142-6.745,24.051-30.69,23.957-36.83C715.229,142.269,712.282,123.376,693.424,117.675 M661.883,81.999
		c15.397,0.12,18.585,7.595,18.692,14.491c0.128,8.101-3.698,16.632-18.025,16.632h-24.8V81.996L661.883,81.999z M669.448,170.186
		H637.75v-40.269l31.698,0.002c15,0,23.73,7.865,23.73,19.291C693.179,162.031,686.677,169.81,669.448,170.186"/>
	<path style="clip-path:url(#SVGID_2_);fill:#FFFFFF;" d="M437.008,116.194v-11.479h-20.739v83.535h20.739v-39.152
		c-0.014-15.518,9.694-33.727,27.302-30.24c8.121,1.608,11.907,9.876,13.136,13.246l14.965-9.746
		c-1.261-2.222-2.289-4.327-3.526-6.265C477.685,98.528,450.207,99.03,437.008,116.194"/>
	<path style="clip-path:url(#SVGID_2_);fill:#FFFFFF;" d="M808.361,151.579h16.336c0.29-2.011,0.445-4.055,0.445-6.123
		c0-5.8-1.137-11.39-3.389-16.623c-2.259-5.239-5.575-9.874-9.846-13.77c-4.247-3.886-9.439-6.993-15.422-9.236
		c-5.961-2.238-12.818-3.373-20.376-3.373c-7.47,0-14.277,1.135-20.232,3.373c-5.993,2.247-11.181,5.356-15.421,9.23
		c-4.27,3.898-7.61,8.521-9.917,13.753c-2.295,5.234-3.458,10.836-3.458,16.646c0,5.804,1.134,11.392,3.379,16.605
		c2.257,5.235,5.572,9.871,9.857,13.775c4.228,3.87,9.42,6.971,15.434,9.239c5.983,2.233,12.831,3.371,20.358,3.371
		c7.525,0,14.377-1.138,20.376-3.378c5.996-2.256,11.183-5.356,15.422-9.232c1.648-1.506,3.14-3.126,4.49-4.833l-14.226-11.047
		c-0.833,1.209-2.868,3.579-4.265,4.827c-2.6,2.313-5.99,4.286-9.514,5.807c-7.083,3.099-17.45,3.069-24.529,0
		c-3.521-1.521-6.503-3.578-8.88-6.141c-2.326-2.535-4.112-5.484-5.332-8.766c-0.509-1.339-0.897-2.71-1.192-4.105h55.335H808.361z
		 M748.838,137.649c0.233-0.862,0.506-1.707,0.815-2.532c0.05-0.181,0.149-0.33,0.198-0.478c1.205-3.042,2.903-5.782,5.16-8.198
		c2.377-2.594,5.354-4.678,8.829-6.17c3.555-1.554,7.709-2.323,12.287-2.323c4.607,0,8.732,0.769,12.291,2.323
		c3.499,1.521,6.478,3.576,8.857,6.14c2.324,2.536,4.11,5.454,5.329,8.706c0.311,0.829,0.582,1.674,0.816,2.532H748.838z"/>
</g>
</svg>
