<svg xmlns="http://www.w3.org/2000/svg" width="102" height="102" viewBox="0 -2 102 102" enable-background="new 0 -2 102 102"><path d="M100.919 29.091l-15.815 8.18v37.355c0 9.669-12.973 23.153-34.101 23.153-4.957 0-10.008-.719-15.442-2.2-1.066-.291-1.694-1.39-1.404-2.456.291-1.064 1.393-1.689 2.456-1.402 5.086 1.385 9.793 2.059 14.39 2.059 18.375 0 30.101-11.344 30.101-19.153v-35.287l-29.185 15.096c-.288.149-.604.224-.919.224s-.631-.074-.919-.224l-29.184-15.096v28.457c3.867.908 6.758 4.378 6.758 8.518 0 4.832-3.929 8.76-8.758 8.76-4.83 0-8.759-3.928-8.759-8.76 0-4.14 2.892-7.609 6.759-8.518v-30.525l-15.816-8.181c-.664-.344-1.081-1.028-1.081-1.776 0-.749.417-1.433 1.081-1.777l49-25.345c.576-.298 1.262-.298 1.838 0l49 25.345c.664.344 1.081 1.028 1.081 1.777 0 .748-.417 1.432-1.081 1.776zm-86.781 47.223c0 2.625 2.135 4.76 4.759 4.76 2.623 0 4.758-2.135 4.758-4.76 0-2.623-2.135-4.756-4.758-4.756-2.624.001-4.759 2.133-4.759 4.756z"/></svg>