<svg xmlns="http://www.w3.org/2000/svg" width="133.142" height="38.208" viewBox="0.89 0.89 133.142 38.208" enable-background="new 0.89 0.89 133.142 38.208"><path d="M134.032 35.268c0 2.116-1.714 3.83-3.834 3.83h-125.469c-2.119 0-3.839-1.714-3.839-3.83v-30.543c0-2.115 1.72-3.835 3.839-3.835h125.468c2.121 0 3.834 1.72 3.834 3.835l.001 30.543z"/><path d="M30.128 19.784c-.029-3.223 2.639-4.791 2.761-4.864-1.511-2.203-3.853-2.504-4.676-2.528-1.967-.207-3.875 1.177-4.877 1.177-1.022 0-2.565-1.157-4.228-1.123-2.14.033-4.142 1.272-5.24 3.196-2.266 3.923-.576 9.688 1.595 12.859 1.086 1.554 2.355 3.287 4.016 3.226 1.625-.066 2.232-1.035 4.193-1.035 1.943 0 2.513 1.035 4.207.996 1.744-.027 2.842-1.56 3.89-3.127 1.255-1.779 1.759-3.533 1.779-3.623-.041-.014-3.387-1.292-3.42-5.154zm-3.2-9.478c.874-1.093 1.472-2.58 1.306-4.089-1.265.056-2.847.875-3.758 1.944-.806.942-1.526 2.486-1.34 3.938 1.421.106 2.88-.717 3.792-1.793zM53.645 31.504h-2.271l-1.244-3.909h-4.324l-1.185 3.909h-2.211l4.284-13.308h2.646l4.305 13.308zm-3.89-5.549l-1.125-3.475c-.119-.355-.342-1.191-.671-2.507h-.04c-.131.566-.342 1.402-.632 2.507l-1.105 3.475h3.573zm14.907.633c0 1.632-.441 2.922-1.323 3.869-.79.843-1.771 1.264-2.942 1.264-1.264 0-2.172-.453-2.725-1.361h-.04v5.055h-2.132v-10.349c0-1.025-.027-2.078-.079-3.158h1.875l.119 1.521h.04c.711-1.146 1.79-1.719 3.238-1.719 1.132 0 2.077.447 2.833 1.342.758.897 1.136 2.075 1.136 3.536zm-2.172.078c0-.934-.21-1.704-.632-2.311-.461-.631-1.08-.947-1.856-.947-.526 0-1.004.176-1.431.523-.428.35-.708.807-.839 1.373-.066.264-.099.479-.099.649v1.601c0 .697.214 1.286.642 1.768.428.48.984.721 1.668.721.803 0 1.428-.311 1.875-.928.448-.619.672-1.435.672-2.449zm13.209-.078c0 1.632-.441 2.922-1.324 3.869-.789.843-1.77 1.264-2.941 1.264-1.264 0-2.172-.453-2.724-1.361h-.04v5.055h-2.132v-10.349c0-1.025-.027-2.078-.079-3.158h1.875l.119 1.521h.04c.71-1.146 1.789-1.719 3.237-1.719 1.131 0 2.076.447 2.834 1.342.756.897 1.135 2.075 1.135 3.536zm-2.172.078c0-.934-.211-1.704-.633-2.311-.461-.631-1.078-.947-1.855-.947-.527 0-1.004.176-1.432.523-.428.35-.707.807-.838 1.373-.065.264-.1.479-.1.649v1.601c0 .697.214 1.286.641 1.768.428.479.983.721 1.67.721.803 0 1.428-.311 1.875-.928.448-.619.672-1.435.672-2.449zm14.512 1.105c0 1.133-.393 2.054-1.182 2.765-.867.776-2.074 1.165-3.625 1.165-1.433 0-2.58-.276-3.449-.829l.494-1.777c.936.566 1.963.851 3.082.851.803 0 1.428-.182 1.877-.545.447-.361.67-.848.67-1.453 0-.54-.184-.995-.553-1.364-.367-.369-.98-.712-1.836-1.028-2.33-.869-3.494-2.143-3.494-3.816 0-1.094.408-1.991 1.225-2.689.814-.699 1.9-1.048 3.258-1.048 1.211 0 2.217.211 3.02.632l-.532 1.738c-.75-.408-1.599-.612-2.548-.612-.75 0-1.336.185-1.756.553-.354.329-.532.73-.532 1.206 0 .525.202.961.61 1.303.355.315 1 .658 1.937 1.027 1.146.461 1.985 1 2.526 1.617.539.614.808 1.385.808 2.304zm7.049-4.263h-2.35v4.659c0 1.185.414 1.776 1.244 1.776.381 0 .697-.032.947-.099l.059 1.619c-.42.157-.973.236-1.658.236-.842 0-1.5-.257-1.975-.771-.474-.514-.711-1.375-.711-2.587v-4.837h-1.4v-1.6h1.4v-1.757l2.094-.632v2.389h2.35v1.604zm10.603 3.119c0 1.475-.422 2.686-1.265 3.633-.883.975-2.055 1.461-3.516 1.461-1.408 0-2.529-.467-3.365-1.4-.836-.935-1.254-2.113-1.254-3.534 0-1.487.431-2.705 1.293-3.652.86-.948 2.022-1.422 3.483-1.422 1.408 0 2.541.468 3.396 1.402.82.906 1.228 2.076 1.228 3.512zm-2.212.068c0-.885-.188-1.644-.571-2.276-.447-.767-1.087-1.147-1.914-1.147-.857 0-1.509.383-1.955 1.147-.384.634-.572 1.405-.572 2.317 0 .885.188 1.644.572 2.275.461.766 1.104 1.148 1.937 1.148.813 0 1.452-.391 1.914-1.168.391-.643.589-1.411.589-2.296zm9.142-2.912c-.211-.039-.436-.059-.672-.059-.75 0-1.33.282-1.738.85-.355.5-.533 1.132-.533 1.895v5.035h-2.131l.02-6.574c0-1.105-.026-2.113-.08-3.021h1.857l.078 1.836h.059c.226-.631.58-1.14 1.066-1.521.475-.343.988-.514 1.541-.514.197 0 .375.014.533.039v2.034zm9.535 2.469c0 .382-.025.704-.078.967h-6.396c.025.948.334 1.674.928 2.174.539.446 1.236.67 2.093.67.946 0 1.812-.15 2.588-.453l.334 1.479c-.908.396-1.979.593-3.217.593-1.488 0-2.656-.438-3.507-1.312-.848-.875-1.272-2.051-1.272-3.524 0-1.446.396-2.651 1.187-3.612.828-1.026 1.946-1.539 3.354-1.539 1.383 0 2.431.513 3.142 1.539.561.813.844 1.821.844 3.018zm-2.033-.553c.014-.633-.125-1.178-.414-1.639-.369-.594-.936-.89-1.699-.89-.697 0-1.264.289-1.697.869-.354.461-.565 1.015-.631 1.658l4.441.002zM49.05 10.009c0 1.177-.353 2.063-1.058 2.658-.653.549-1.581.824-2.783.824-.596 0-1.106-.026-1.533-.078v-6.431c.557-.09 1.157-.136 1.805-.136 1.145 0 2.008.249 2.59.747.652.563.979 1.368.979 2.416zm-1.105.029c0-.763-.202-1.348-.606-1.756-.404-.407-.994-.611-1.771-.611-.33 0-.611.022-.844.068v4.889c.129.02.365.029.708.029.802 0 1.421-.223 1.857-.669.436-.446.656-1.096.656-1.95zm6.964.999c0 .725-.207 1.319-.621 1.785-.434.479-1.009.718-1.727.718-.692 0-1.243-.229-1.654-.689-.41-.459-.615-1.038-.615-1.736 0-.73.211-1.329.635-1.794.424-.465.994-.698 1.712-.698.692 0 1.248.229 1.669.688.4.446.601 1.022.601 1.726zm-1.087.034c0-.435-.094-.808-.281-1.119-.22-.376-.533-.564-.94-.564-.421 0-.741.188-.961.564-.188.311-.281.69-.281 1.138 0 .435.094.808.281 1.119.227.376.543.564.951.564.4 0 .714-.191.94-.574.194-.317.291-.693.291-1.128zm8.943-2.352l-1.475 4.714h-.96l-.611-2.047c-.155-.511-.281-1.019-.379-1.523h-.019c-.091.518-.217 1.025-.379 1.523l-.649 2.047h-.971l-1.387-4.714h1.077l.533 2.241c.129.53.235 1.035.32 1.513h.019c.078-.394.207-.896.389-1.503l.669-2.25h.854l.641 2.202c.155.537.281 1.054.378 1.552h.029c.071-.485.178-1.002.32-1.552l.572-2.202 1.029-.001zm5.433 4.714h-1.048v-2.7c0-.832-.316-1.248-.95-1.248-.311 0-.562.114-.757.343-.193.229-.291.499-.291.808v2.796h-1.048v-3.366c0-.414-.013-.863-.038-1.349h.921l.049.737h.029c.122-.229.304-.418.543-.569.284-.176.602-.265.95-.265.44 0 .806.142 1.097.427.363.349.543.87.543 1.562v2.824zm2.89 0h-1.047v-6.877h1.047v6.877zm6.17-2.396c0 .725-.207 1.319-.621 1.785-.434.479-1.01.718-1.727.718-.693 0-1.244-.229-1.654-.689-.41-.459-.615-1.038-.615-1.736 0-.73.211-1.329.635-1.794.425-.465.994-.698 1.711-.698.693 0 1.248.229 1.671.688.399.446.6 1.022.6 1.726zm-1.088.034c0-.435-.094-.808-.281-1.119-.219-.376-.533-.564-.938-.564-.423 0-.742.188-.961.564-.188.311-.281.69-.281 1.138 0 .435.094.808.281 1.119.227.376.543.564.95.564.4 0 .713-.191.939-.574.195-.317.291-.693.291-1.128zm6.16 2.362h-.941l-.078-.543h-.028c-.322.433-.781.65-1.378.65-.444 0-.805-.143-1.075-.427-.246-.258-.369-.579-.369-.96 0-.576.24-1.015.724-1.319.481-.304 1.159-.453 2.032-.446v-.088c0-.621-.325-.931-.979-.931-.465 0-.875.117-1.229.349l-.214-.688c.438-.271.979-.407 1.617-.407 1.232 0 1.85.65 1.85 1.95v1.736c0 .471.023.846.068 1.124zm-1.088-1.62v-.727c-1.156-.02-1.734.297-1.734.95 0 .246.066.43.201.553s.307.184.512.184c.23 0 .445-.073.641-.218.197-.146.318-.331.363-.558l.017-.184zm7.043 1.62h-.93l-.049-.757h-.029c-.297.576-.803.864-1.514.864-.568 0-1.041-.223-1.416-.669-.375-.446-.562-1.025-.562-1.736 0-.763.203-1.381.611-1.853.395-.44.879-.66 1.455-.66.633 0 1.075.213 1.328.64h.02v-2.706h1.049v5.607c0 .459.012.882.037 1.27zm-1.086-1.988v-.786c0-.136-.01-.246-.029-.33-.059-.252-.186-.464-.379-.635-.195-.171-.43-.257-.701-.257-.391 0-.697.155-.922.466-.223.311-.336.708-.336 1.193 0 .466.107.844.322 1.135.227.31.533.465.916.465.344 0 .619-.129.828-.388.202-.239.301-.527.301-.863zm10.049-.408c0 .725-.207 1.319-.621 1.785-.434.479-1.008.718-1.727.718-.691 0-1.242-.229-1.654-.689-.41-.459-.615-1.038-.615-1.736 0-.73.211-1.329.635-1.794.424-.465.994-.698 1.713-.698.691 0 1.248.229 1.668.688.4.446.601 1.022.601 1.726zm-1.086.034c0-.435-.094-.808-.281-1.119-.221-.376-.533-.564-.941-.564-.42 0-.739.188-.961.564-.188.311-.28.69-.28 1.138 0 .435.094.808.28 1.119.228.376.543.564.951.564.4 0 .715-.191.941-.574.193-.317.291-.693.291-1.128zm6.721 2.362h-1.047v-2.7c0-.832-.316-1.248-.951-1.248-.311 0-.562.114-.756.343-.193.229-.291.499-.291.808v2.796h-1.049v-3.366c0-.414-.012-.863-.037-1.349h.92l.049.737h.029c.123-.229.305-.418.543-.569.285-.176.602-.265.951-.265.439 0 .805.142 1.096.427.363.349.543.87.543 1.562v2.824zm7.053-3.929h-1.153v2.29c0 .582.204.873.61.873.188 0 .344-.016.467-.049l.027.795c-.207.078-.479.117-.813.117-.414 0-.736-.126-.97-.378s-.35-.676-.35-1.271v-2.377h-.689v-.785h.689v-.864l1.027-.31v1.173h1.154v.786h.001zm5.548 3.929h-1.049v-2.68c0-.845-.316-1.268-.949-1.268-.486 0-.818.245-1 .735-.031.104-.049.229-.049.377v2.835h-1.047v-6.876h1.047v2.841h.02c.33-.517.803-.775 1.416-.775.434 0 .793.142 1.078.427.355.355.533.883.533 1.581v2.803zm5.723-2.58c0 .188-.014.346-.039.475h-3.143c.014.466.164.821.455 1.067.266.22.608.33 1.028.33.466 0 .89-.074 1.271-.223l.164.728c-.446.194-.973.291-1.582.291-.729 0-1.305-.215-1.721-.645-.418-.43-.625-1.007-.625-1.731 0-.711.193-1.303.582-1.775.406-.504.955-.756 1.648-.756.678 0 1.193.252 1.541.756.282.4.421.895.421 1.483zm-1-.271c.008-.311-.061-.579-.203-.805-.182-.291-.459-.437-.834-.437-.342 0-.621.142-.834.427-.174.227-.277.498-.311.815h2.182z" fill="#fff"/></svg>